<?xml version="1.0" encoding="UTF-8" standalone="no"?>
<svg width="227px" height="76px" viewBox="0 0 227 76" version="1.1" xmlns="http://www.w3.org/2000/svg" xmlns:xlink="http://www.w3.org/1999/xlink">
    <!-- Generator: Sketch 3.8.2 (29753) - http://www.bohemiancoding.com/sketch -->
    <title>Group 13</title>
    <desc>Created with Sketch.</desc>
    <defs></defs>
    <g id="MAIN" stroke="none" stroke-width="1" fill="none" fill-rule="evenodd" opacity="0.335762593">
        <g id="Hot" transform="translate(-62.000000, -159.000000)" fill="#FFFFFF">
            <g id="Group-13" transform="translate(62.000000, 158.000000)">
                <path d="M113.470271,76.6718828 L38.1925087,76.6718828 C38.1925087,34.879469 71.8958158,0.999468966 113.470271,0.999468966 C155.044727,0.999468966 188.748034,34.879469 188.748034,76.6718828 L113.470271,76.6718828 Z" id="Fill-7"></path>
                <path d="M207.566682,76.6718828 L188.747242,76.6718828 C188.747242,66.2237793 197.173068,57.7537793 207.566682,57.7537793 C217.960296,57.7537793 226.386123,66.2237793 226.386123,76.6718828 L207.566682,76.6718828 Z" id="Fill-9"></path>
                <path d="M19.3738604,76.6718828 L0.554419766,76.6718828 C0.554419766,66.2237793 8.98024654,57.7537793 19.3738604,57.7537793 C29.7674743,57.7537793 38.1933011,66.2237793 38.1933011,76.6718828 L19.3738604,76.6718828 Z" id="Fill-11"></path>
            </g>
        </g>
    </g>
</svg>