<?xml version="1.0" encoding="UTF-8" standalone="no"?>
<svg width="129px" height="29px" viewBox="0 0 129 29" version="1.1" xmlns="http://www.w3.org/2000/svg" xmlns:xlink="http://www.w3.org/1999/xlink">
    <!-- Generator: Sketch 3.8.2 (29753) - http://www.bohemiancoding.com/sketch -->
    <title>Page 1</title>
    <desc>Created with Sketch.</desc>
    <defs></defs>
    <g id="MAIN" stroke="none" stroke-width="1" fill="none" fill-rule="evenodd" opacity="0.276061101">
        <g id="Hot" transform="translate(-641.000000, -167.000000)" fill="#FFFFFF">
            <g id="Page-1" transform="translate(641.000000, 167.000000)">
                <path d="M99.7492,28.4998 L71.2492,28.4998 C71.2492,12.7598 84.0092,-0.0002 99.7492,-0.0002 C115.4892,-0.0002 128.2492,12.7598 128.2492,28.4998 L99.7492,28.4998 Z" id="Fill-1"></path>
                <path d="M14.2501,28.4998 L0.0001,28.4998 C0.0001,20.6298 6.3801,14.2498 14.2501,14.2498 C22.1201,14.2498 28.5001,20.6298 28.5001,28.4998 L14.2501,28.4998 Z" id="Fill-3"></path>
                <path d="M35.6247,28.4998 L28.4997,28.4998 C28.4997,24.5648 31.6897,21.3748 35.6247,21.3748 C39.5597,21.3748 42.7497,24.5648 42.7497,28.4998 L35.6247,28.4998 Z" id="Fill-5"></path>
            </g>
        </g>
    </g>
</svg>