<?xml version="1.0" encoding="UTF-8" standalone="no"?>
<svg width="861px" height="239px" viewBox="0 0 861 239" version="1.1" xmlns="http://www.w3.org/2000/svg" xmlns:xlink="http://www.w3.org/1999/xlink">
    <!-- Generator: Sketch 3.8.2 (29753) - http://www.bohemiancoding.com/sketch -->
    <title>Group 10</title>
    <desc>Created with Sketch.</desc>
    <defs>
        <linearGradient x1="68.5025575%" y1="98.0496277%" x2="64.3921146%" y2="-27.4243217%" id="linearGradient-1">
            <stop stop-color="#8DC6F2" stop-opacity="0.00724637681" offset="0%"></stop>
            <stop stop-color="#54A9E0" offset="100%"></stop>
        </linearGradient>
        <linearGradient x1="66.4962212%" y1="81.8712442%" x2="62.3279285%" y2="-11.5056191%" id="linearGradient-2">
            <stop stop-color="#8DC6F2" stop-opacity="0.16612885" offset="0%"></stop>
            <stop stop-color="#3C91C9" offset="100%"></stop>
        </linearGradient>
        <linearGradient x1="50%" y1="92.1724495%" x2="78.5566553%" y2="-26.0136913%" id="linearGradient-3">
            <stop stop-color="#FFF7E1" stop-opacity="0" offset="0%"></stop>
            <stop stop-color="#FFEBBF" offset="100%"></stop>
        </linearGradient>
        <polygon id="path-4" points="0 0.470132737 0 15.6379765 9.96065273 15.6379765 9.96065273 0.470132737 2.56319535e-20 0.470132737"></polygon>
        <polygon id="path-6" points="0 74.3697479 57.8115 74.3697479 57.8115 0.117857143 0 0.117857143"></polygon>
    </defs>
    <g id="MAIN" stroke="none" stroke-width="1" fill="none" fill-rule="evenodd">
        <g id="Cold" transform="translate(-50.000000, -196.000000)">
            <g id="Group-10" transform="translate(50.000000, 196.000000)">
                <g id="Group-11" opacity="0.467000933" transform="translate(430.500000, 122.000000) scale(-1, 1) translate(-430.500000, -122.000000) ">
                    <polygon id="Path-37" fill="url(#linearGradient-1)" points="175.679556 159.950095 180.255502 141.665595 186.697575 155.418253 202.255789 151.761353 211.40768 116.106578 220.559571 141.704878 303.841776 74.0522266 309.332911 43.882801 317.569613 60.3388513 339.53415 42.9685759 408.173331 85.0229268 504.268184 0 621.429441 106.332911 627.049804 80.1321812 633.606894 113.818834 648.594528 123.176238 655.151618 99.7827289 659.835253 128.79068 860.294855 232.657861 290.727025 232.657861 0 232.657861"></polygon>
                    <polygon id="Path-37-Copy" fill="url(#linearGradient-2)" points="407.8222 85.0229268 503.917053 0 621.07831 106.332911 626.698673 80.1321812 633.255763 113.818834 648.243396 123.176238 654.800486 99.7827289 659.484122 128.79068 859.943724 232.657861 290.375894 232.657861 232 232.657867"></polygon>
                    <polygon id="Path-38" fill="url(#linearGradient-3)" opacity="0.233208955" points="503.641913 0.406281133 347.075231 212.368422 232.338409 243.545777"></polygon>
                </g>
                <g id="Page-1" transform="translate(593.000000, 158.000000)">
                    <polygon id="Fill-1" fill="#FFCEA8" points="7.11886957 74.8821429 9.96023913 74.8821429 9.96023913 14.3779412 7.11886957 14.3779412"></polygon>
                    <g id="Group-18" transform="translate(0.000000, 0.512395)">
                        <path d="M8.53993261,15.2857563 L22.7776717,15.2857563 C23.562563,15.2857563 24.1986717,14.6498319 24.1986717,13.8651681 C24.1986717,13.0811345 23.562563,12.4452101 22.7776717,12.4452101 L8.53993261,12.4452101 C7.75567174,12.4452101 7.11893261,13.0811345 7.11893261,13.8651681 C7.11893261,14.6498319 7.75567174,15.2857563 8.53993261,15.2857563 L8.53993261,15.2857563 Z" id="Fill-2" fill="#FFFFFF"></path>
                        <g id="Group-6" fill="#FFFFFF">
                            <path d="M9.77035217,13.1553151 C8.98798261,11.8002731 3.43385217,2.1832563 2.65148261,0.828214286 C2.25872174,0.149432773 1.38998261,-0.0837605042 0.710373913,0.308256303 C0.0307652174,0.700903361 -0.201865217,1.56939076 0.190895652,2.24880252 C0.946156522,3.55783613 6.55387391,13.2668697 7.30976522,14.5759034 C7.70189565,15.2546849 8.57063478,15.4878782 9.25024348,15.0952311 C9.92985217,14.7032143 10.1624826,13.8347269 9.77035217,13.1553151" id="Fill-4"></path>
                        </g>
                        <g id="Group-9" transform="translate(0.000000, 11.974790)">
                            <mask id="mask-5" fill="white">
                                <use xlink:href="#path-4"></use>
                            </mask>
                            <g id="Clip-8"></g>
                            <path d="M7.30957609,1.18052521 C6.52720652,2.53556723 0.973076087,12.152584 0.190706522,13.5076261 C-0.202054348,14.1870378 0.0312065217,15.0555252 0.710815217,15.447542 C1.38979348,15.8395588 2.25916304,15.6069958 2.65129348,14.927584 C3.40718478,13.6191807 9.01427174,3.90951681 9.77016304,2.60111345 C10.1622935,1.92170168 9.92966304,1.05321429 9.25005435,0.660567227 C8.57107609,0.26855042 7.70170652,0.501113445 7.30957609,1.18052521" id="Fill-7" fill="#FFFFFF" mask="url(#mask-5)"></path>
                        </g>
                        <path d="M8.53993261,15.2857563 C9.32230217,15.2857563 9.96093261,14.6479412 9.96093261,13.8651681 C9.96093261,13.0830252 9.32230217,12.4445798 8.53993261,12.4445798 C7.75756304,12.4445798 7.11893261,13.0830252 7.11893261,13.8651681 C7.11893261,14.6479412 7.75756304,15.2857563 8.53993261,15.2857563" id="Fill-10" fill="#FFE46D"></path>
                        <mask id="mask-7" fill="white">
                            <use xlink:href="#path-6"></use>
                        </mask>
                        <g id="Clip-13"></g>
                        <polygon id="Fill-12" fill="#FFCEA8" mask="url(#mask-7)" points="40.7323913 74.3697479 43.5737609 74.3697479 43.5737609 13.8655462 40.7323913 13.8655462"></polygon>
                        <path d="M42.152887,15.2857563 L56.3912565,15.2857563 C57.1755174,15.2857563 57.8116261,14.6498319 57.8116261,13.8651681 C57.8116261,13.0811345 57.1755174,12.4452101 56.3912565,12.4452101 L42.152887,12.4452101 C41.3686261,12.4452101 40.7325174,13.0811345 40.7325174,13.8651681 C40.7325174,14.6498319 41.3686261,15.2857563 42.152887,15.2857563" id="Fill-14" fill="#FFFFFF" mask="url(#mask-7)"></path>
                        <path d="M43.3833065,13.1553151 C42.600937,11.8002731 37.0468065,2.1832563 36.264437,0.828214286 C35.8716761,0.149432773 35.002937,-0.0837605042 34.3233283,0.308256303 C33.6437196,0.700903361 33.4110891,1.56939076 33.80385,2.24880252 C34.5591109,3.55783613 40.1668283,13.2668697 40.9227196,14.5759034 C41.31485,15.2546849 42.1835891,15.4878782 42.8631978,15.0952311 C43.5428065,14.7032143 43.775437,13.8347269 43.3833065,13.1553151" id="Fill-15" fill="#FFFFFF" mask="url(#mask-7)"></path>
                        <path d="M40.9225304,13.1553151 C40.1401609,14.5103571 34.5860304,24.1273739 33.8036609,25.482416 C33.4109,26.1618277 33.6441609,27.0303151 34.3237696,27.4223319 C35.0033783,27.8143487 35.8721174,27.5817857 36.2642478,26.9023739 C37.0201391,25.5939706 42.6272261,15.8843067 43.3831174,14.5759034 C43.7752478,13.8964916 43.5426174,13.0280042 42.8630087,12.6353571 C42.1840304,12.2433403 41.3146609,12.4759034 40.9225304,13.1553151" id="Fill-16" fill="#FFFFFF" mask="url(#mask-7)"></path>
                        <path d="M42.152887,15.2857563 C42.9352565,15.2857563 43.573887,14.6479412 43.573887,13.8651681 C43.573887,13.0830252 42.9352565,12.4445798 42.152887,12.4445798 C41.3705174,12.4445798 40.731887,13.0830252 40.731887,13.8651681 C40.731887,14.6479412 41.3705174,15.2857563 42.152887,15.2857563" id="Fill-17" fill="#FFE46D" mask="url(#mask-7)"></path>
                    </g>
                </g>
                <g id="Group-15" transform="translate(172.000000, 158.000000)">
                    <g id="Group-14-Copy" opacity="0.134561567" transform="translate(115.000000, 45.000000) scale(-1, 1) translate(-115.000000, -45.000000) translate(74.000000, 9.000000)">
                        <polyline id="Path-61" fill="#59B0E8" points="19 71.8082422 37 35 55 71.3327941"></polyline>
                        <polyline id="Path-61-Copy-3" fill="#8B5021" points="37 71.8082422 60.2931186 0 82 71.2558711"></polyline>
                        <polyline id="Path-61-Copy" fill="#8B5021" points="0 71.8082422 14.493496 23.7351649 28 71.4384493"></polyline>
                    </g>
                    <g id="Group-14">
                        <polyline id="Path-61" fill="#3A76AD" points="49 80.7494777 67.6344948 0 85 80.1283278"></polyline>
                        <polyline id="Path-61-Copy" fill="#3A76AD" points="30 80.7494777 44.493496 17.9443284 58 80.2663611"></polyline>
                        <polyline id="Path-61-Copy-2" fill="#3276AA" points="95 80.8608209 105.352497 36 115 80.5157377"></polyline>
                        <path d="M67,81 C67,68.8497355 52.0015391,59 33.5,59 C14.9984609,59 0,68.8497355 0,81 L67,81 Z" id="Oval-81" fill="#FFFFFF"></path>
                    </g>
                </g>
            </g>
        </g>
    </g>
</svg>